<svg width="78" height="20" viewBox="0 0 78 20" fill="none" xmlns="http://www.w3.org/2000/svg">
  <rect x="0" y="1" width="18" height="18" rx="2" fill="#E67E22"/>
  <rect x="2" y="3" width="4.2" height="4.2" fill="#FFFFFF"/>
  <circle cx="13.9" cy="14.9" r="2.1" fill="#FFFFFF"/>
  <path fill="#6C707E" d="M23 5h2.2l4.8 7.1V5h2.2v11h-2.2l-4.8-7.1V16H23V5Z"/>
  <path fill="#6C707E" d="M35.4 12.6c.8.8 1.8 1.3 3.1 1.3 1.1 0 1.8-.4 1.8-1.1 0-.8-.9-1-2.1-1.3-1.9-.4-4.1-1-4.1-3.4 0-1.9 1.6-3.3 4.2-3.3 1.7 0 3.1.5 4.1 1.5l-1.3 1.7c-.8-.8-1.9-1.1-3-1.1-1.1 0-1.7.4-1.7 1 0 .7.8.9 2 1.2 1.9.4 4.2 1 4.2 3.5 0 2.1-1.5 3.5-4.4 3.5-2.1 0-3.6-.7-4.6-1.7l1.3-1.8Z"/>
  <path fill="#6C707E" d="M44.3 5h3.1l2.9 7.2L53.2 5h3.1v11h-2.2V8.1L51 16h-1.3l-3.1-7.9V16h-2.2V5Z"/>
  <path fill="#6C707E" d="M58.4 5h5.2c2.4 0 3.7 1.6 3.7 3.5S66 12 63.6 12h-3v4h-2.2V5Zm4.9 2h-2.7v3h2.7c.9 0 1.6-.6 1.6-1.5S64.2 7 63.3 7Z"/>
</svg>
